# xmcd
#
# Track frame offsets:
#	150
#	18588
#	34568
#	49777
#	64034
#	79203
#	96621
#	112016
#	124654
#	140918
#	159190
#	173019
#
# Disc length: 2479 seconds
#
# Revision: 1
# Processed by: cddbd v1.5.2PL0 Copyright (c) Steve Scherf et al.
# Submitted via: audiograbber 1.81.02
#
DISCID=a109ad0c
DTITLE=Dean Brothers - A Chance To Dance 6
DYEAR=2006
DGENRE=Country
TTITLE0=The World (The World)
TTITLE1=You Need A Man Around Here (Kill The Spiders)
TTITLE2=Mr. Mom (All Day Long)
TTITLE3=C'est La Vie (You Never Can Tell) (Just Wright)
TTITLE4=I Can't Be Bothered (I Can't Be Bothered)
TTITLE5=Suds In The Bucket  (Suds In The Bucket)
TTITLE6=Live To Love another Day (The Long and Short Of It)
TTITLE7=Black Horse And The Cherry Tree (Black Horse)
TTITLE8=Cab Of My Truck (4 Wheels Turning)
TTITLE9=Lot Of Leavin' Left To Do (Ain't For The Faint)
TTITLE10=Stop The World (20 Kisses)
TTITLE11=Blame It On The Bossa Nova (Bossa Nova)
EXTD=
EXTT0=
EXTT1=
EXTT2=
EXTT3=
EXTT4=
EXTT5=
EXTT6=
EXTT7=
EXTT8=
EXTT9=
EXTT10=
EXTT11=
PLAYORDER=
